<?xml version="1.0" encoding="UTF-8" standalone="no"?>
<!-- Created with Inkscape (http://www.inkscape.org/) -->

<svg
   width="109.9362mm"
   height="109.9218mm"
   viewBox="0 0 109.9362 109.9218"
   version="1.1"
   id="svg96782"
   inkscape:version="1.1 (ce6663b3b7, 2021-05-25)"
   sodipodi:docname="logo.svg"
   xmlns:inkscape="http://www.inkscape.org/namespaces/inkscape"
   xmlns:sodipodi="http://sodipodi.sourceforge.net/DTD/sodipodi-0.dtd"
   xmlns:xlink="http://www.w3.org/1999/xlink"
   xmlns="http://www.w3.org/2000/svg"
   xmlns:svg="http://www.w3.org/2000/svg">
  <sodipodi:namedview
     id="namedview96784"
     pagecolor="#ffffff"
     bordercolor="#666666"
     borderopacity="1.0"
     inkscape:pageshadow="2"
     inkscape:pageopacity="0.0"
     inkscape:pagecheckerboard="0"
     inkscape:document-units="mm"
     showgrid="false"
     fit-margin-top="0"
     fit-margin-left="0"
     fit-margin-right="0"
     fit-margin-bottom="0"
     inkscape:zoom="0.75187991"
     inkscape:cx="-48.544986"
     inkscape:cy="342.4749"
     inkscape:window-width="1920"
     inkscape:window-height="1016"
     inkscape:window-x="0"
     inkscape:window-y="27"
     inkscape:window-maximized="1"
     inkscape:current-layer="layer1" />
  <defs
     id="defs96779">
    <linearGradient
       inkscape:collect="always"
       xlink:href="#linearGradient37607"
       id="linearGradient208334"
       gradientUnits="userSpaceOnUse"
       gradientTransform="matrix(33.268772,33.268772,-33.268772,33.268772,63.8435,117.2723)"
       x1="0"
       y1="0"
       x2="1"
       y2="0"
       spreadMethod="pad" />
    <linearGradient
       x1="0"
       y1="0"
       x2="1"
       y2="0"
       gradientUnits="userSpaceOnUse"
       gradientTransform="matrix(161.01434,-161.01434,-161.01434,-161.01434,493.62177,486.62177)"
       spreadMethod="pad"
       id="linearGradient37607">
      <stop
         style="stop-opacity:1;stop-color:#1d1d1b"
         offset="0"
         id="stop37601" />
      <stop
         style="stop-opacity:1;stop-color:#1d1d1b"
         offset="0.79908746"
         id="stop37603" />
      <stop
         style="stop-opacity:1;stop-color:#5acc11"
         offset="1"
         id="stop37605" />
    </linearGradient>
  </defs>
  <g
     inkscape:label="Layer 1"
     inkscape:groupmode="layer"
     id="layer1"
     transform="translate(-2.039,-57.9976)">
    <path
       d="m 111.9608,112.9585 c 0,30.35412 -24.6068,54.9609 -54.9609,54.9609 -30.3541,0 -54.9609,-24.60678 -54.9609,-54.9609 0,-30.3541 24.6068,-54.9609 54.9609,-54.9609 30.3541,0 54.9609,24.6068 54.9609,54.9609"
       style="fill:#5acc11;fill-opacity:1;fill-rule:nonzero;stroke:none;stroke-width:0.20662"
       id="path206844" />
    <path
       d="m 82.7398,113.015 c 0,14.2562 -11.5571,25.8132 -25.8132,25.8132 -14.2564,0 -25.8133,-11.557 -25.8133,-25.8132 0,-14.2564 11.5569,-25.8134 25.8133,-25.8134 14.2561,0 25.8132,11.557 25.8132,25.8134"
       style="fill:#ffffff;fill-opacity:1;fill-rule:nonzero;stroke:none;stroke-width:0.20662"
       id="path207556" />
    <path
       d="m 33.0459,102.386 c 2.1856,2.3315 3.0582,4.4398 3.451,5.9358 0.4425,1.6858 0.3159,2.7476 1.2422,3.4509 1.3494,1.0243 2.7509,-0.3688 4.8314,0.5521 1.9002,0.8412 2.3823,2.734 3.3129,2.4846 0.5672,-0.1518 0.8052,-0.9669 0.9664,-1.5184 0.5866,-2.009 -0.5604,-2.8822 -0.1381,-4.5554 0.2472,-0.9798 0.7424,-1.0831 2.2086,-2.8986 1.1244,-1.3924 1.8864,-2.6363 2.3468,-3.451 -0.2149,-1.1868 -0.7021,-2.6487 -1.9327,-3.451 -0.9984,-0.651 -1.7344,-0.3775 -2.3466,-1.1043 -0.7771,-0.9224 -0.2108,-2.097 -0.2761,-4.0031 -0.036,-1.0405 -0.2688,-2.564 -1.2424,-4.4173 -1.836,0.8698 -4.6214,2.4608 -7.316,5.2456 -2.7906,2.8836 -4.3072,5.8317 -5.1074,7.7301"
       style="fill:#5acc11;fill-opacity:1;fill-rule:nonzero;stroke:none;stroke-width:0.20662"
       id="path207560" />
    <path
       d="m 34.1501,127.371 c 0.9312,-2.6013 5.2723,-4.4231 8.4204,-3.589 2.1581,0.5717 3.3032,2.2718 5.2454,1.7943 1.341,-0.3296 1.3212,-1.2693 2.6227,-1.5182 1.9934,-0.3815 4.6923,1.3147 5.3837,3.4509 0.4252,1.3139 0.023,2.5855 0.6901,2.8987 0.5618,0.2641 1.1176,-0.5106 1.6564,-0.2761 0.7701,0.3354 0.3594,2.2324 0.5521,4.2791 0.3271,3.4702 2.0945,4.2517 1.6567,5.38374 -1.0422,2.69349 -12.9222,3.11128 -20.844,-3.31294 -0.987,-0.8005 -6.7001,-5.4333 -5.3835,-9.1105"
       style="fill:#5acc11;fill-opacity:1;fill-rule:nonzero;stroke:none;stroke-width:0.20662"
       id="path207564" />
    <path
       d="m 62.4481,86.5115 c -2.3553,2.0681 1.38,6.9433 0,17.5309 -0.544,4.1745 -1.5728,6.8546 -3.589,7.7302 -1.4174,0.6156 -2.9377,0.172 -3.589,1.2422 -0.5659,0.9305 -0.1275,2.4328 0.6903,3.3132 0.9792,1.0542 2.389,1.0938 2.7607,1.104 1.5205,0.043 2.1714,-0.6875 6.3498,-3.0367 1.5881,-0.893 1.5342,-0.81 2.4846,-1.3805 2.4406,-1.4645 3.6611,-2.1969 4.5554,-3.4509 0.3231,-0.4529 1.4213,-1.9929 1.3804,-4.0031 -0.062,-3.0113 -2.6218,-4.2526 -2.2088,-6.9019 0.1713,-1.0992 0.8284,-1.9325 0.8284,-1.9325 0.5853,-0.8077 1.1079,-0.966 1.6565,-1.5185 1.1831,-1.1918 1.2477,-2.9677 1.2422,-3.3129 -0.055,-3.4878 -9.6019,-7.982 -12.5615,-5.3835"
       style="fill:#5acc11;fill-opacity:1;fill-rule:nonzero;stroke:none;stroke-width:0.20662"
       id="path207568" />
    <path
       d="m 67.2794,120.193 c -1.4267,-0.2589 -3.7047,-0.034 -4.5551,1.3804 -0.7286,1.2108 -0.1441,2.8512 0.414,4.4174 0.5116,1.4358 0.9728,1.718 1.2422,3.1747 0.2335,1.2612 0.027,1.8017 0.4143,2.0705 0.5721,0.3971 1.5647,-0.4052 3.727,-1.6565 3.4793,-2.0133 4.1467,-1.8097 4.9694,-3.0369 0.806,-1.2021 1.348,-3.1615 0.5521,-4.141 -0.656,-0.8075 -1.6389,-0.2321 -4.1411,-1.1042 -1.5883,-0.5538 -1.5469,-0.9094 -2.6228,-1.1044"
       style="fill:#5acc11;fill-opacity:1;fill-rule:nonzero;stroke:none;stroke-width:0.20662"
       id="path207572" />
    <path
       d="m 87.0631,95.4991 c 6.4411,12.3253 5.8715,26.9069 -1.653,37.3982 v 0 c -9.7163,13.54723 -29.5906,18.2685 -46.4895,9.71113 v 0 h -0.4132 c -0.3442,0.34443 -0.6889,0.68866 -1.0331,1.0331 v 0 c 8.4714,7.98937 16.9428,15.97853 25.4142,23.96791 v 0 c 4.8912,-0.56284 19.7498,-2.91231 32.4394,-15.28988 v 0 c 16.0822,-15.68676 16.6205,-35.71776 16.6473,-39.65366 v 0 C 105.2723,105.9625 98.5689,99.2596 91.8658,92.5562 v 0 c -1.6009,0.9808 -3.2018,1.9619 -4.8027,2.9429"
       style="fill:url(#linearGradient208334);stroke:none;stroke-width:0.20662"
       id="path207622" />
    <path
       d="m 57.0098,76.5699 c -20.0647,0 -36.3882,16.3238 -36.3882,36.3885 0,7.1393 2.068,13.804 5.6345,19.429 l 2.4187,-2.4186 c -2.9964,-4.9728 -4.7225,-10.7935 -4.7225,-17.0104 0,-18.2281 14.8295,-33.0578 33.0575,-33.0578 18.228,0 33.0577,14.8297 33.0577,33.0578 0,18.2282 -14.8297,33.0577 -33.0577,33.0577 -6.3036,0 -12.1999,-1.77404 -17.2178,-4.84834 l -2.4156,2.4156 c 5.6675,3.64622 12.4077,5.76366 19.6334,5.76366 20.0647,0 36.3885,-16.32382 36.3885,-36.38862 0,-20.0647 -16.3238,-36.3885 -36.3885,-36.3885"
       style="fill:#ffffff;fill-opacity:1;fill-rule:nonzero;stroke:none;stroke-width:0.20662"
       id="path207634" />
    <path
       d="M 90.9785,92.4793 85.326,98.1316 71.5035,84.3091 77.156,78.6568 Z"
       style="fill:#5acc11;fill-opacity:1;fill-rule:nonzero;stroke:none;stroke-width:0.20662"
       id="path207638" />
    <path
       d="m 34.157,138.6296 -2.5908,-11.5368 -8.6958,8.0121 z"
       style="fill:#ffffff;fill-opacity:1;fill-rule:nonzero;stroke:none;stroke-width:0.20662"
       id="path207642" />
    <path
       d="m 80.5287,89.1193 2.591,11.5368 8.6956,-8.0121 z"
       style="fill:#ffffff;fill-opacity:1;fill-rule:nonzero;stroke:none;stroke-width:0.20662"
       id="path207646" />
  </g>
</svg>
